<svg xmlns="http://www.w3.org/2000/svg" viewBox="0 0 185.46 163"><defs><style>.cls-1{fill:#fff;}</style></defs><title>Asset 12</title><g id="Layer_2" data-name="Layer 2"><g id="Layer_1-2" data-name="Layer 1"><path class="cls-1" d="M127.82,28.94h13c0-1.07,0-2.08,0-3.1.1-4.06,2.57-6.59,6.61-6.67,2.84-.06,5.68-.05,8.52,0,4.64.06,7,2.49,7,7.16v2.47c1.83.25,3.61.36,5.32.76a22.42,22.42,0,0,1,17.16,22q-.1,44.39,0,88.77c0,12.47-9.5,21.06-18.61,22.32a37.82,37.82,0,0,1-5,.24c-46.27,0-92.54-.12-138.81.09-12.29.06-21.21-9.1-22.64-18A35.21,35.21,0,0,1,0,139.46Q0,95.81,0,52.17C0,40.94,6.47,32.3,16.94,29.62a53.69,53.69,0,0,1,5.52-.84c0-1,0-2.07,0-3.16A6.18,6.18,0,0,1,28.7,19.2c3.15-.1,6.3-.09,9.45,0,3.93.1,6.36,2.64,6.45,6.62,0,1,0,2,0,3.07h13c0-4.12,0-8.18,0-12.24A16.05,16.05,0,0,1,63.82,3.39,15.62,15.62,0,0,1,74.15,0c9.64,0,19.27,0,28.91,0,3.21,0,6.43,0,9.64.07a15.76,15.76,0,0,1,15,14.64c.23,4,.09,8,.11,12C127.82,27.43,127.82,28.09,127.82,28.94ZM92.71,34.79H23.58c-3,0-5.95.2-8.61,1.71-6,3.42-8.8,8.71-8.79,15.59q0,43.83,0,87.66a19.47,19.47,0,0,0,.54,4.95c2,7.61,8.21,12.12,16.53,12.12q69.33,0,138.64,0a22.1,22.1,0,0,0,5.14-.53c7.36-1.82,12.15-8.17,12.16-16.13q0-44.2-.06-88.41A18.9,18.9,0,0,0,177.55,44c-3.06-6.53-8.51-9.31-15.7-9.28C138.8,34.85,115.76,34.79,92.71,34.79Zm28.68-5.85c0-5.2.13-10.25-.09-15.29a7.9,7.9,0,0,0-1.89-3.9C117.2,6.8,114,6.21,110.49,6.22c-10.43,0-20.87,0-31.31,0-2.28,0-4.57,0-6.85.15A8.85,8.85,0,0,0,64,14.58c-.27,4.62-.14,9.26-.17,13.88,0,.16.15.31.21.42h6.61c0-4.37,0-8.62,0-12.87,0-2.37.95-3.31,3.24-3.31q18.81,0,37.62,0c2.29,0,3.24,1,3.27,3.29,0,3.71,0,7.42,0,11.12v1.83Zm-12.44,0c0-3.09,0-6-.06-8.89a1.66,1.66,0,0,0-1.16-1.12q-15-.09-30,0c-.41,0-1.16.59-1.17.92-.09,3-.06,6-.06,9.1Zm-80.16,0H38.3V25.5H28.79Zm127.87-3.39h-9.49v3.35h9.49Z"/><path class="cls-1" d="M92.73,60.8c22.11,0,44.22,0,66.33,0,3.23,0,4,1.22,3.83,3.79a2.37,2.37,0,0,1-2.21,2.34,19.2,19.2,0,0,1-2.4.14H27.85c-.62,0-1.23,0-1.85,0C23.56,67,22.46,66,22.47,64c0-2.27,1-3.15,3.57-3.15H92.73Z"/><path class="cls-1" d="M92.73,131H26.21c-3.1,0-4.46-1.59-3.45-4.22a4.32,4.32,0,0,1,2-1.76,4.23,4.23,0,0,1,1.83-.1H157.83c.61,0,1.23,0,1.85,0,2.32.06,3.23.93,3.27,3.08s-1,3-3.33,3q-23.44,0-46.88,0Z"/><path class="cls-1" d="M92.91,93.05h64.65c.93,0,1.85,0,2.78,0a2.46,2.46,0,0,1,2.58,2.56,2.56,2.56,0,0,1-2.24,3.08,13.6,13.6,0,0,1-2.39.19H27.13a13.6,13.6,0,0,1-2.39-.18,2.57,2.57,0,0,1-2.24-3.09,2.48,2.48,0,0,1,2.6-2.55c.68,0,1.36,0,2,0H92.91Z"/></g></g></svg>