<svg xmlns="http://www.w3.org/2000/svg" viewBox="0 0 185.53 164.02"><defs><style>.cls-1{fill:#fbfcf4;}.cls-2{fill:#f9fbf0;}</style></defs><title>Asset 3</title><g id="Layer_2" data-name="Layer 2"><g id="Layer_1-2" data-name="Layer 1"><path class="cls-1" d="M45.71,117c3.22,0,6.43-.06,9.65,0,2.15,0,3.65,1.07,3.67,3.42,0,2-1.1,3-3,3.6-19.49,5.88-44.5-5.14-52.6-23.21C-4.22,83.65,1.18,62.7,16.61,51c3.2-2.42,4.89-4.69,5.46-9C24.23,25.7,41.25,15,57.1,19.83c4.12,1.26,6.23.27,9.13-2.64,15.11-15.16,33.41-21,54-14.63s33.31,20.84,36.71,42.62a7.65,7.65,0,0,0,5,6.59c16.81,7.58,26.28,25.23,22.89,42-3.59,17.81-18.82,30-38,30.42-2.84.06-5.68,0-8.52,0s-5.79.06-6-3.58c-.19-3.9,3-3.67,5.67-3.69,3.59,0,7.19,0,10.78,0a29.31,29.31,0,0,0,29.09-29.35C178,70,165.61,56.36,149.17,56c-2.83-.06-5.67,0-8.51,0-2.39.06-4.79.05-5.1-3.06s2.16-3.1,4.17-3.53c1.3-.28,2.61-.51,3.92-.66,7.26-.79,7.5-.85,5.22-8-5.21-16.26-15.71-27.57-32.41-32-17.19-4.54-32,.81-44.88,12.5-2.71,2.46-3.3,4.53-.47,7.5a23.09,23.09,0,0,1,6.28,16.56c0,2.25-.17,4.41-2.91,4.65-3,.27-3.81-1.72-3.9-4.35-.47-14.56-14.84-22.21-26.31-19.36A20.15,20.15,0,0,0,29,44.56c-.41,5.07-2,8.23-6.59,11.13C9.69,63.71,4.12,80.09,8.4,94c4.36,14.21,16.81,22.92,32.77,22.9h4.54Z"/><path class="cls-2" d="M92,151.27V77.07c-5.62,5.61-10.31,10.35-15.06,15a18.64,18.64,0,0,1-4.35,3.51A3.44,3.44,0,0,1,68,94.45c-1.12-1.57-.4-2.94.71-4.06q12-12.09,24-24.09c2.19-2.18,4.36-1.62,6.42.45C106.77,74.4,114.41,82,122,89.63c1.56,1.57,2.93,3.45.87,5.36s-4.18,1.14-6-.74C111.81,89,106.71,83.65,100.32,79v71.21c5.34-3.77,9.12-8.69,13.6-12.83,1.39-1.28,2.68-2.68,4.08-3.94s3-1.63,4.54-.22c1.77,1.55,1.87,3.47.38,5q-12.06,12.41-24.36,24.57c-2.19,2.17-4.53,1.29-6.49-.69Q80.54,150.35,69,138.62c-1.48-1.5-2.4-3.11-.64-4.89s3.63-1.82,5.45,0Q81,141,88.29,148.16C89.18,149,90.2,149.79,92,151.27Z"/></g></g></svg>