<svg xmlns="http://www.w3.org/2000/svg" viewBox="0 0 181.45 164.02"><defs><style>.cls-1{fill:#fafbee;}.cls-2{fill:#fbfcf3;}</style></defs><title>Asset 1</title><g id="Layer_2" data-name="Layer 2"><g id="Layer_1-2" data-name="Layer 1"><path class="cls-1" d="M90.19,163.92c-27.77,0-55.55-.12-83.33.1-5.38,0-6.88-1.67-6.86-7Q.27,82,0,7c0-5.3,1.52-7,6.9-7Q90.79.24,174.68,0c4.95,0,6.8,1.37,6.77,6.62-.2,36.3-.1,72.6-.11,108.89,0,1.11,0,2.23-.08,3.33-.19,1.91-1.25,3.12-3.23,3.08a2.92,2.92,0,0,1-2.93-2.81,43.56,43.56,0,0,1-.18-5c0-26.29-.09-52.59.09-78.88,0-4.28-1.07-5.64-5.53-5.63q-78.88.24-157.77,0c-4,0-5.41.93-5.39,5.2q.24,58.89,0,117.77c0,4.07,1.45,4.81,5.14,4.8q79.16-.15,158.33,0c4.22,0,5.42-1.15,5.21-5.25-.32-6.47-.1-13-.07-19.44,0-2.54-.52-5.77,3.38-5.7,3.52.07,3,3.08,3,5.44,0,8.52-.24,17.05.1,25.55.19,4.88-1.91,5.94-6.25,5.92-23.51-.13-47-.06-70.55-.06ZM59.29,23.22H102c10.56,0,10.23,0,10.65-10.44.21-5.4-1.8-6.33-6.64-6.3-29.4.2-58.8.1-88.21.1-11.58,0-11.33,0-11.52,11.33-.08,4.7,1.77,5.43,5.84,5.38C27.85,23.11,43.57,23.22,59.29,23.22ZM147.18,6.58H130.52c-11.73,0-11.56,0-11.59,11.72,0,3.91,1.19,5.06,5,5,13.13-.21,26.27-.08,39.4-.08,12.06,0,11.94,0,11.61-12.23-.09-3.36-1.13-4.55-4.5-4.46C162.72,6.71,155,6.59,147.18,6.58Z"/><path class="cls-2" d="M146.27,93.72c-9.49-5.71-18-10.82-26.54-16-2-1.22-4.88-2.33-3.26-5.39,1.8-3.38,4.41-1.56,6.63-.24C133,78,142.8,83.87,152.57,89.88c4.52,2.77,4.55,4.94.1,7.63-10,6-20,11.89-30.09,17.8-2.1,1.24-4.48,2.83-6.14-.28s1.1-4.27,3.12-5.48C128.1,104.43,136.7,99.38,146.27,93.72Z"/><path class="cls-2" d="M35.42,93.87c8.4,5,16,9.49,23.61,14,1.43.85,2.81,1.78,4.25,2.62,1.87,1.08,2.74,2.64,1.68,4.61-1.29,2.39-3.23,1.88-5.2.72q-11-6.48-22-12.92c-3.18-1.87-6.44-3.64-9.51-5.68-3.74-2.48-3.75-4.67.14-7.07C38.64,83.86,49,77.74,59.28,71.56c1.85-1.11,3.88-1.89,5.38.32,1.75,2.55,0,4.12-2.06,5.34-7.75,4.68-15.52,9.31-23.28,14C38.24,91.85,37.23,92.62,35.42,93.87Z"/><path class="cls-2" d="M77.35,116.76c-2.28-.49-4.16-1.33-3.11-4.07a22.42,22.42,0,0,1,2.52-4.29Q88.12,91.3,99.51,74.21c1.57-2.35,3.21-5.2,6.51-2.85s.68,4.58-.7,6.64c-7.83,11.67-15.72,23.31-23.55,35C80.62,114.7,79.57,116.41,77.35,116.76Z"/><path class="cls-1" d="M131.39,18.43c-2-.16-3.36-1.1-3.46-3.32s1-3.49,3.14-3.59a3.09,3.09,0,0,1,3.56,3.22C134.74,16.9,133.51,18.05,131.39,18.43Z"/><path class="cls-1" d="M146.77,11.45c2.31.15,3.4,1.34,3.41,3.52a3.24,3.24,0,1,1-6.47.16A3.24,3.24,0,0,1,146.77,11.45Z"/><path class="cls-1" d="M159.44,15.09c.15-2.07,1-3.53,3.28-3.57a2.87,2.87,0,0,1,3.2,2.94c.16,2.1-.6,3.72-2.82,3.86C161.05,18.44,159.72,17.25,159.44,15.09Z"/></g></g></svg>