<svg xmlns="http://www.w3.org/2000/svg" viewBox="0 0 163.84 163.8"><defs><style>.cls-1{fill:#fff;}</style></defs><title>Asset 9</title><g id="Layer_2" data-name="Layer 2"><g id="Layer_1-2" data-name="Layer 1"><path class="cls-1" d="M91.68,74.66V50.54H81.1V0h82.74V50.49h-2.08c-14.55,0-29.1,0-43.65,0a3.77,3.77,0,0,0-3,1.24C107.94,59,100.7,66.17,93.49,73.41a12.48,12.48,0,0,0-1.19,1.66Zm7-16.11.48.18c4.53-4.57,9.09-9.12,13.58-13.73a4,4,0,0,1,3.12-1.32c13.06,0,26.12,0,39.18,0h2V7.1H88.1V43.73H98.71Z"/><path class="cls-1" d="M49.33,99.08c5.76,0,11.53-.31,17.27.06,14.68.94,28.26,13.77,30.29,28.35.61,4.45,1.14,8.93,1.51,13.41a33.37,33.37,0,0,1-.25,6.31,8.24,8.24,0,0,1-3.88,5.95c-5.81,4.07-12.36,6.23-19.2,7.76a114.62,114.62,0,0,1-33.64,2.58c-10.38-.77-20.62-2.32-30.28-6.49-1.87-.81-3.62-1.92-5.41-2.91-4.18-2.33-6-6-5.72-10.68.22-4.2.78-8.39,1.11-12.59.94-12.3,7.19-21.27,17.49-27.57C24,100,29.94,98.84,36.15,98.84H49.33ZM48.14,156.7c10.93,0,20.39-.85,29.63-3.45a33.86,33.86,0,0,0,11.89-5.45c.79-.6,1.83-1.39,2-2.22.39-2.64.9-5.41.48-8a113.87,113.87,0,0,0-3.39-14.07A25.75,25.75,0,0,0,85.28,116a23.25,23.25,0,0,0-19.06-10.16c-10.66-.32-21.34-.4-32,0-9.88.35-17.68,5-22.24,13.9A44.59,44.59,0,0,0,7.23,145.2a3.11,3.11,0,0,0,1.27,2.06A54.86,54.86,0,0,0,17,151.83C27.5,155.71,38.45,156.63,48.14,156.7Z"/><path class="cls-1" d="M49,37.66c15.76.12,27.73,12.09,27.64,27.65A27.46,27.46,0,0,1,48.89,92.59C33.36,92.36,21.34,80.28,21.48,65A27.6,27.6,0,0,1,49,37.66Zm-.23,47.82c11.76,0,21.07-9,21.09-20.37A21,21,0,0,0,49.07,44.45c-11.23,0-20.92,9.52-20.92,20.6A20.41,20.41,0,0,0,48.79,85.48Z"/><path class="cls-1" d="M126.56,31.58c-.55.07-.82.12-1.1.13H120.2c-.16-3.21-.65-6.33,2.15-8.74a12.8,12.8,0,0,0,1.93-2.16,4.82,4.82,0,0,0,1-1.93c.16-1.15.38-2.51-1.13-3s-2.38.46-2.77,1.77-1.07,1.5-2.24,1.44c-1.7-.09-3.41,0-5.11,0-.12-4.81,4.6-9.19,9.63-9.08a10.25,10.25,0,0,1,7.58,3.36,6.74,6.74,0,0,1,.64,7.92A14.45,14.45,0,0,1,130,23.71C127.82,25.88,125.47,27.94,126.56,31.58Z"/><path class="cls-1" d="M127.43,37a3.48,3.48,0,0,1-3.84,3.79c-2.47,0-3.84-1.43-3.82-4a3.41,3.41,0,0,1,3.71-3.72C126,33.12,127.46,34.57,127.43,37Z"/></g></g></svg>