<svg xmlns="http://www.w3.org/2000/svg" viewBox="0 0 163.11 163"><defs><style>.cls-1{fill:#fff;}</style></defs><title>Asset 11</title><g id="Layer_2" data-name="Layer 2"><g id="Layer_1-2" data-name="Layer 1"><path class="cls-1" d="M81.58,163C37.21,163.58,0,126.25,0,81.58,0,37.25,36.86,0,81.53,0,126,0,163.1,37,163.11,81.53,163.12,125.93,126.21,163.54,81.58,163Zm76.34-81.42C158.31,39.86,123,5.18,81.61,5.12S5.18,39.78,5.12,81.45c0,41.3,34.51,76.56,76.46,76.54C123.25,158,158.27,123.19,157.92,81.57Z"/><path class="cls-1" d="M81.85,119.1a63.9,63.9,0,0,1-31-8c-1.56-.87-3.15-1.7-4.71-2.59s-2-2.1-1.37-3.51c.83-1.79,2-2,3.84-1,2.67,1.55,5.32,3.17,8.12,4.44,15.12,6.86,30.56,7.22,46.06,1.53,4-1.48,7.76-3.82,11.57-5.9,1.83-1,2.81-1,3.74.48a2.48,2.48,0,0,1-1,3.84c-5,2.49-10,5.13-15.27,7.21C95.35,118.23,88.47,119,81.85,119.1Z"/><path class="cls-1" d="M58.81,56.15c-3.15,2.89-6.32,5.77-9.45,8.69-1.53,1.42-2.67,1.61-4,.5s-1.4-2.07-.21-3.29c3.37-3.45,6.78-6.87,10.17-10.3,3.14-3.17,3.14-3.17,6.27,0,3.29,3.31,6.59,6.6,9.88,9.91.76.77,1.44,1.72.73,2.73A3.83,3.83,0,0,1,70,65.89a3.19,3.19,0,0,1-2.22-1c-2.78-2.66-5.47-5.42-8.2-8.14-.37-.38-.77-.73-1.16-1.1Z"/><path class="cls-1" d="M104.18,56.05c-2.71,2.71-5.83,5.87-9,9-1.38,1.36-2.36,1.35-3.64.1a2.11,2.11,0,0,1-.11-3.29Q97.2,56,103,50.23a2,2,0,0,1,3.26,0c3.85,3.89,7.69,7.79,11.56,11.66a2,2,0,0,1,.4,2.87,2.27,2.27,0,0,1-2.94,1,7.41,7.41,0,0,1-1.83-1.27C110.42,61.77,107.39,59,104.18,56.05Z"/></g></g></svg>