<svg xmlns="http://www.w3.org/2000/svg" viewBox="0 0 143.17 163"><defs><style>.cls-1{fill:#fff;}</style></defs><title>Asset 10</title><g id="Layer_2" data-name="Layer 2"><g id="Layer_1-2" data-name="Layer 1"><path class="cls-1" d="M109.18,163H46.06V139.55H19.66v-2.08c0-9.77,0-19.55,0-29.32,0-1.24-.29-1.78-1.58-2.07C12.5,104.8,6.93,103.39,1.34,102c-.41-.1-.81-.25-1.34-.42L9.58,84.48c2.49-4.45,5-8.88,7.43-13.36a4.93,4.93,0,0,0,.57-2.75,61.77,61.77,0,0,1,.38-18c0-.16,0-.32.06-.48.41-2.25.49-2.31,2.81-2.31H25c.26-2.3.31-4-1.94-5.76-10.8-8.25-11.35-25.16-1.26-34.94,7.25-7,15.92-8.63,25.11-5,9,3.59,14,10.62,15.07,20.49,2-6.8,4-13.6,6.11-20.62L94.2,13.2l-7.94,3.86c2.17,4.76,4.26,9.4,6.41,14a1.55,1.55,0,0,0,1.18.56c1.63.06,3.26.08,4.89,0a4.76,4.76,0,0,0,4.92-5.12c0-3.41,0-6.82,0-10.39H98.8a7.73,7.73,0,0,1-.2-1.21c0-4.45,0-8.91,0-13.36,0-.46.53-1.32.83-1.32,4.83-.09,9.65-.06,14.62-.06V16h-4.9c0,1,0,1.74,0,2.53-.05,3,.11,6.09-.2,9.1A10.71,10.71,0,0,1,98.5,37.12c-.92,0-1.84,0-2.8,0a3,3,0,0,0,.08.59l4.44,9.85c3.88,0,7.73,0,11.58-.05.46,0,1.1-.73,1.32-1.26,4.44-10.31,8.88-20.61,13.17-31a13,13,0,0,1,4.66-6c4.05-2.81,7.92-5.88,12-9a10.74,10.74,0,0,1,.17,1.35c0,5.54,0,11.08,0,16.62a6.36,6.36,0,0,1-.52,2.34c-3.47,8.42-7,16.82-10.47,25.23-.21.49-.38,1-.64,1.72h5.13c.46,3.52,1.15,6.88,1.3,10.27.38,8.78.59,17.59-1.25,26.28a68.35,68.35,0,0,1-25.86,41.09,3.74,3.74,0,0,0-1.69,3.35c.07,10.81,0,21.61,0,32.42ZM132,52.88H22.82c-.16,2.42-.49,4.75-.44,7.07.07,2.87.54,5.72.65,8.59a7.46,7.46,0,0,1-.65,3.68c-4.16,7.67-8.46,15.27-12.72,22.9-.52.93-1,1.87-1.65,3L25.18,102v32.18H51.27v23.38h52.41v-2.08c0-10.09,0-20.19,0-30.29a2.58,2.58,0,0,1,.74-1.89c15.1-10.21,24-24.43,27.25-42.26,1.45-7.9,1-15.9.78-23.87C132.44,55.77,132.19,54.37,132,52.88Zm-86-5.37a25.55,25.55,0,0,0,0-3.73c-.39-2.5.6-4,2.8-5.18a13.48,13.48,0,0,0,5.64-5.93A18.47,18.47,0,1,0,21.71,15.61a18.14,18.14,0,0,0,2.56,20.32,28.84,28.84,0,0,0,4.6,3.57,2.77,2.77,0,0,1,1.42,2.67c-.12,1.75,0,3.52,0,5.29h5.27v-16c-4.5-2.4-6.13-5.51-5.09-9.61a8,8,0,0,1,15.44,0c1.07,4.06-.57,7.19-5,9.59V47.51Zm91-27.61-5.68-2.83-13,30.5c2.15,0,4-.07,5.92,0a1.68,1.68,0,0,0,1.89-1.28c2.45-6.07,5-12.12,7.48-18.18C134.79,25.44,135.91,22.75,137.09,19.9Zm-50,11.75-7.89-16.8,2.44-1.34L71.27,9.1,68.8,18.72l2.19-1c1.94,4.28,3.82,8.48,5.77,12.64.25.52.91,1.18,1.41,1.2C81,31.7,83.91,31.65,87.1,31.65ZM61.78,47.49c-.81-7.83.78-14.12,9.71-15.92l-3.11-6.83C66.2,25.93,64.1,27,62.06,28.23a2.42,2.42,0,0,0-.9,1.41,22.29,22.29,0,0,1-9.08,13.23A1.88,1.88,0,0,0,51.27,44c-.1,1.17,0,2.34,0,3.54Zm32.67.07c-1.56-3.42-3-6.57-4.45-9.7a1.32,1.32,0,0,0-.92-.7c-3,0-5.94,0-9.17,0,1.58,3.48,3,6.73,4.56,9.95.12.27.69.46,1,.46C88.39,47.58,91.27,47.56,94.45,47.56Zm-16-.08c-1.53-3.35-3-6.54-4.44-9.73a1.09,1.09,0,0,0-.67-.58c-3.2-.43-5.73,1.06-6.12,4.11a51.15,51.15,0,0,0,0,6.2Zm25.29-36.94H109V5.67h-5.25ZM38.15,21.23a2.37,2.37,0,0,0-2.51,2.56,2.53,2.53,0,1,0,5,0A2.37,2.37,0,0,0,38.15,21.23ZM138,14.41V10.8l-2.68,2.07Z"/><path class="cls-1" d="M30.28,60.69h5.23c1.13,5.62,3.64,8,8.2,7.82s6.84-2.63,7.56-7.82h5.26a11.74,11.74,0,0,1-5.81,10.89,13.39,13.39,0,0,1-14.23.22C32.31,69.44,30.26,65.65,30.28,60.69Z"/></g></g></svg>