<svg xmlns="http://www.w3.org/2000/svg" viewBox="0 0 164.09 164.02"><defs><style>.cls-1{fill:#f9fae9;}</style></defs><title>Asset 2</title><g id="Layer_2" data-name="Layer 2"><g id="Layer_1-2" data-name="Layer 1"><path class="cls-1" d="M4.81,65.38V20.65c0-2.64.53-5.51-3.38-6.09A2,2,0,0,1,0,12.18a2.25,2.25,0,0,1,2-2,42.11,42.11,0,0,1,5.49-.4c22.11,0,44.22-.11,66.33.06,4,0,6-.92,5.44-5.26C79.06,2.65,79.11.07,81.87,0c3.29-.08,2.9,2.83,2.72,4.84-.38,4.17,1.56,5,5.31,5,22.11-.13,44.22-.07,66.33-.05a46.61,46.61,0,0,1,5,.21c1.38.14,2.66.66,2.82,2.33a2.2,2.2,0,0,1-2,2.5c-3.93.59-2.79,3.61-2.8,5.87q-.08,44,0,88c0,9.78-2.06,11.85-11.71,11.87-7.87,0-15.75.12-23.62,0-3.86-.08-5,.89-3.74,5,3.38,10.69,6.41,21.5,9.42,32.3.55,2,2.75,5.06-.6,6-3.6,1-3.48-2.84-4.16-5-1.93-6.06-3.76-12.16-5.3-18.33-.77-3.09-2.06-4.41-5.42-4.39q-32.16.19-64.33,0c-3.1,0-4.41,1.11-5.16,4.06-1.75,6.81-3.83,13.53-5.82,20.28-.58,1.93-1.2,4.36-3.91,3.41C32.44,163,33.57,160.7,34,159c3.19-11.1,6.29-22.24,9.77-33.25,1.25-4,.69-5.43-3.73-5.31-8,.23-16.08.08-24.12.06-8.94,0-11.14-2.28-11.15-11.42Q4.8,87.25,4.81,65.38Zm77-50.3c-22.27,0-44.54.07-66.8-.07-3.85,0-5.23,1-5.21,5.06q.24,44.7,0,89.41c0,4.66,1.53,6.11,6.07,6.1q66.06-.18,132.11,0c4.94,0,6.24-1.78,6.21-6.46-.16-29.47-.2-58.94,0-88.4,0-4.9-1.76-5.78-6.11-5.75C126,15.17,103.9,15.08,81.8,15.08Zm.42,116.06c10,0,20.07,0,30.1,0,1.31,0,3.2.78,3.7-1.45,1-4.29-3.07-9.2-7.57-9.2q-18.81,0-37.63,0c-5.68,0-11.37-.06-17.06,0-3.12.06-5.86,4.18-5.63,8.48.2,3.78,3.27,2.07,5,2.1C62.82,131.24,72.52,131.15,82.22,131.14Z"/><path class="cls-1" d="M128.23,38.28h-13.4c-1.92,0-4-.16-4.11-2.6-.07-2.68,2.26-2.45,4.06-2.46,6.37,0,12.73.05,19.09,0,3.39,0,4.88,1.41,4.83,4.81-.1,6.36,0,12.72,0,19.09,0,1.92-.24,4-2.82,3.79-2.32-.16-2.15-2.19-2.17-3.86,0-4.49,0-9,0-13.55-2.63-.17-3.45,1.79-4.64,3C116.64,58.69,104.36,71,92,83.32c-5.58,5.56-9.28,5.55-14.93,0-3.7-3.63-7.34-7.34-11-11-4.6-4.6-4.65-4.64-9.44.07C48.39,80.47,40.2,88.62,32,96.74c-.71.71-1.42,1.42-2.16,2.1-1.14,1-2.36,1.3-3.52.06s-.7-2.47.35-3.52C36.72,85.32,46.66,75.13,57,65.3c3.28-3.14,7.2-2,10.33,1,4.68,4.56,9.27,9.2,13.87,13.84,1.81,1.82,3.59,3.15,5.94.79Q107.46,60.48,127.84,40C128,39.83,128,39.42,128.23,38.28Z"/></g></g></svg>