<svg xmlns="http://www.w3.org/2000/svg" viewBox="0 0 126.28 164.02"><defs><style>.cls-1{fill:#f7f8ef;}</style></defs><title>Asset 5</title><g id="Layer_2" data-name="Layer 2"><g id="Layer_1-2" data-name="Layer 1"><path class="cls-1" d="M0,88.41Q0,54.21,0,20c0-5.77.93-6.82,6.64-6.83,21.12-.06,42.25,0,63.38,0a18.86,18.86,0,0,1,3,.23c2,.31,3.61,1.22,3.56,3.49s-1.38,3.36-3.51,3.54c-1.67.14-3.35.19-5,.19-18.44,0-36.89.1-55.33-.06-3.92,0-5.61.73-5.59,5.18q.24,63.12,0,126.25c0,3.6.81,5,4.72,4.95q51.06-.21,102.11,0c4.24,0,4.94-1.61,4.93-5.3q-.15-52.3,0-104.62c0-3.09-1.23-7.87,3.6-8C127.7,39,126,43.9,126,46.89q.14,54.84.06,109.66c0,7.15-.31,7.47-7.32,7.47H7.11c-6.65,0-7.1-.46-7.1-7.2Q0,122.62,0,88.41Z"/><path class="cls-1" d="M32.38,88.62c3.29-8.17,3.38-18,11.27-25.44,20.52-19.5,40.2-39.87,60.24-59.88,4.42-4.42,5.27-4.39,9.78,0,3.23,3.16,6.35,6.45,9.76,9.42,3.67,3.19,3.39,5.83,0,9.14-12.07,11.86-24,23.9-35.93,35.87C79,66.28,70.34,74.7,62,83.39c-3.38,3.52-7,5.93-11.9,6.82-4.27.78-8.41,2.24-12.66,3.21C34,94.21,32.21,92.69,32.38,88.62Zm72.94-60,1.31-1.31c-1.84-1.2-4.11-2.05-5.43-3.68-2.87-3.51-4.8-3.14-7.89,0q-23,23.54-46.58,46.59c-3.6,3.54-4,8-5,12.29-.35,1.5.51,2.34,2,1.9,3.63-1.08,7.73-.88,10.7-3.85Q79,56,103.5,31.51C104.31,30.69,105.31,30,105.32,28.63Zm3.33-19.16c-2.07,1.31-4.19,2.92-5.16,5.46-.44,1.17,6.62,8.19,7.76,7.71a8.45,8.45,0,0,0,5.17-5.55C116.7,16.06,110,9.5,108.65,9.47Z"/></g></g></svg>