<svg xmlns="http://www.w3.org/2000/svg" viewBox="0 0 164.44 164.02"><defs><style>.cls-1{fill:#fafbee;}.cls-2{fill:#cdd521;}</style></defs><title>Asset 4</title><g id="Layer_2" data-name="Layer 2"><g id="Layer_1-2" data-name="Layer 1"><path class="cls-1" d="M101.66,63.28c8.82-5,17.73-9.85,26.42-15.07,3.2-1.92,4.72-1.54,6.55,1.71q10.91,19.36,22.31,38.46c1.62,2.74,1,3.94-1.58,5.39a303.83,303.83,0,0,0-27.78,17.31c7.52,0,15-.14,22.56.06,4.41.11,10.06-2,12.91,1,2.61,2.76.73,8.29.77,12.59.1,11.66,0,23.32.09,35,0,3.19-.91,4.32-4.25,4.31-44.64-.1-89.29,0-133.93-.14A25.36,25.36,0,0,1,.16,138.42C-.06,93.78.1,49.14,0,4.5,0,.9,1.41,0,4.74,0c14.49.13,29,.16,43.47,0C52,0,53.09,1.32,53,5,52.83,15.07,53,25.19,53,35.37c2.88.05,3.06-2,3.82-3.27,4.51-7.59,9-15.19,13.31-22.89,1.61-2.89,3-3.69,6.18-1.79,12.56,7.54,25.21,15,38,22.12,3.43,1.92,3.42,3.49,1.58,6.57-5.2,8.71-10.07,17.62-15.07,26.46-.25.43-.43.91.17,1.16C101.08,63.79,101.41,63.44,101.66,63.28ZM89,158.37c21.15,0,42.29-.13,63.44.1,4.7.06,6-1.48,5.85-6-.28-10.48-.21-21,0-31.46.06-3.63-1-4.92-4.79-4.91-41.79.13-83.58,0-125.38.12-13.54,0-22.27,8.77-22.17,21.67C6,150.25,14.71,158.34,28,158.36Q58.49,158.4,89,158.37ZM18.34,109.58c2.59,1.12,4-.3,5.55-1.18q31.2-17.9,62.39-35.83a12.42,12.42,0,0,0,5-4.69C97,57.72,102.76,47.58,108.7,37.55c1.66-2.83,1.26-4.22-1.6-5.81Q92.49,23.57,78.13,15c-2.75-1.65-4.21-1.41-5.88,1.48C54.4,47.44,36.43,78.37,18.34,109.58Zm14.52.16.2,1.11a13.67,13.67,0,0,0,1.79.22q38.67,0,77.36,0a9.92,9.92,0,0,0,5.15-1.57c10-5.87,20-11.85,30.22-17.5,3.23-1.79,3.17-3.39,1.48-6.22-5.54-9.28-11.05-18.58-16.2-28.08-2.07-3.83-3.81-3.73-7.23-1.71C107.87,66.51,90,76.72,72.1,87Q52.47,98.38,32.86,109.74ZM6.94,118.18a31.74,31.74,0,0,0,1.91-2.61q18.74-32.4,37.46-64.81A11,11,0,0,0,47.72,45c0-11.48-.16-23,.06-34.45.08-3.89-1.44-4.76-5-4.69-10.32.18-20.65.31-30.95-.05-5-.17-6.09,1.56-6.07,6.26C6,46.05,5.87,80,5.89,114,5.89,115.21,5.37,116.61,6.94,118.18Z"/><path class="cls-2" d="M101.66,63.28c-.25.16-.58.51-.73.45-.6-.25-.42-.73-.17-1.16Z"/><path class="cls-1" d="M102.43,150.81c-13.13,0-26.27,0-39.41,0-1.93,0-4.72,1-4.89-2.53s2.54-2.83,4.57-2.84q40.41,0,80.82,0c1.82,0,4.22-.79,4.31,2.51.11,3.61-2.47,2.86-4.49,2.87C129.71,150.83,116.07,150.81,102.43,150.81Z"/><path class="cls-1" d="M26.69,150.78a13.29,13.29,0,1,1-.22-26.57,13.29,13.29,0,0,1,.22,26.57Zm7.58-13.06A7.41,7.41,0,0,0,26.94,130c-4.69-.19-8.09,2.9-8.16,7.43a7.64,7.64,0,0,0,7.84,7.86A7.58,7.58,0,0,0,34.27,137.72Z"/><path class="cls-1" d="M48.6,145.43c2.55-.1,4.33-.15,4.35,2.63,0,3.22-2.22,2.7-4.15,2.74s-4.21.09-4-2.93C44.92,144.7,47.41,145.63,48.6,145.43Z"/></g></g></svg>