<svg xmlns="http://www.w3.org/2000/svg" viewBox="0 0 163.4 164.02"><defs><style>.cls-1{fill:#fbfbf0;}</style></defs><title>Asset 6</title><g id="Layer_2" data-name="Layer 2"><g id="Layer_1-2" data-name="Layer 1"><path class="cls-1" d="M163.33,53.94c0,4.72-.14,9.44,0,14.15.15,3.85-.1,7.35-3.64,9.8-1.94,1.35-1.26,3.1-.61,5,6,17.12,2.79,32.41-9.14,46-9.94,11.34-27.69,15.41-43.65,9.2-4.29-1.67-6.57-.82-9.47,2.23-7.06,7.46-14.55,14.51-21.68,21.91-2.28,2.38-3.68,2.44-6,.06Q35.53,128.35,1.66,94.69c-2.95-2.92-1.48-4.31.62-6.39Q32.74,58,63.1,27.64c1.25-1.25,3.81-2.46,3.09-4.16-.87-2.06-3.61-1-5.47-.89-18.86,1.1-36.26,7-52.57,16.34C5.93,40.2,3.05,43.61.8,40s2-4.91,4.18-6.13c20-11.36,41.32-18,64.53-17.27,3.36.11,6-.53,7.91-3.26C85,2.43,95.38-1.45,108.28.69a2.86,2.86,0,0,0,1,0c15.49-2.68,27.55,2.44,37,15.12,4.08,5.49,9.57,9.93,14.55,14.72a7.65,7.65,0,0,1,2.54,6.23C163.23,42.49,163.33,48.21,163.33,53.94Zm-6,0c0-4.55-.2-9.11.06-13.64a9.94,9.94,0,0,0-3.42-8.41c-7.53-7.23-14.88-14.66-22.16-22.14a8.92,8.92,0,0,0-7.1-3c-7.4.15-14.88.67-22.21-.12-7.83-.85-13,2.27-17.79,7.89-2.41,2.85-2.06,3.63,1.37,4.27a81.18,81.18,0,0,1,27.18,10.49c2.06,1.24,3.62,1.48,5.88,0,4.86-3.27,9.93-2.73,13.92.84a11,11,0,0,1,2.86,13.29,11.75,11.75,0,0,1-12,6.52,11.16,11.16,0,0,1-9.84-10c-.27-3.31-1.89-4.71-4.33-6.06A93.67,93.67,0,0,0,80.76,23.59a7.62,7.62,0,0,0-7.58,2.46c-13.41,13.51-27,26.86-40.46,40.28-8,8-8,8,0,16,18,18,36.05,35.88,53.89,54,3.09,3.14,4.52,1.47,6.85-.63,2.63-2.37,2-3.68-.31-5.87-13.73-12.91-12.6-32.44-8.62-47.71a2.88,2.88,0,0,1,3.8-2.33c2.24.55,2.26,2.25,2,4-.42,2.32-1.14,4.59-1.44,6.92C87.29,103,87.2,115,96.46,124.92c2.72,2.93,4.61,3.28,7.67.14,13.41-13.74,26.63-27.72,40.82-40.62C154.36,75.89,160.6,67.1,157.3,53.9ZM20.42,79.17a30.11,30.11,0,0,0-2.49,2c-2.41,2.34-4.6,5-7.2,7.06-3.24,2.62-2.64,4.41.09,7.12C28,112.39,45,129.63,62.13,146.79c10.52,10.55,10.48,10.48,20.83-.59,2-2.13,1.89-3.34-.09-5.31Q53,111.19,23.2,81.37A29,29,0,0,0,20.42,79.17Zm100.31,55.39c23.62,0,41.1-23.29,34.4-45.75-1.2-4-2.35-4.47-5.4-1.34-11.48,11.82-23.22,23.37-34.7,35.18-2.83,2.9-9,6.32-7.41,9C109.68,135.13,116,134.64,120.73,134.56Zm.89-91.8c3.31,2,5.78,1.63,7.91-.53a5.13,5.13,0,0,0,.88-6.09A5,5,0,0,0,125,33.25c-1.56.15-3.69.6-1.46,2.57C127.29,39.14,124.78,40.77,121.62,42.76Z"/></g></g></svg>