<svg xmlns="http://www.w3.org/2000/svg" viewBox="0 0 163.69 164.02"><defs><style>.cls-1{fill:#f8f9ec;}</style></defs><title>Asset 7</title><g id="Layer_2" data-name="Layer 2"><g id="Layer_1-2" data-name="Layer 1"><path class="cls-1" d="M119.18,85.86c13.19,0,26.38.1,39.56-.07,3.68-.05,5,1.11,4.95,4.85q-.19,34.55,0,69.1c0,3.53-.93,4.71-4.6,4.15q-40.54-6.16-81.14-12.07c-2.43-.35-3.49-1.37-3.48-3.87q.08-29.29,0-58.59c0-3.51,2.17-3.52,4.66-3.51Q99.16,85.88,119.18,85.86ZM119,91.8c-11.34,0-22.69.07-34,0-3.07,0-4.52.7-4.49,4.16.14,15.52.11,31,0,46.55,0,2.84.8,4,3.85,4.46q34.65,4.94,69.24,10.32c3.49.55,4.37-.34,4.35-3.66q-.14-28.79,0-57.57c0-3.32-1.19-4.3-4.39-4.26C142,91.89,130.49,91.8,119,91.8Z"/><path class="cls-1" d="M118.85,79.79c-13.18,0-26.36-.12-39.54.07-3.68.06-4.94-1-4.91-4.77q.24-28.77,0-57.56c0-3.55,1.1-5,4.63-5.53Q119.13,6.23,159.18.14c3.36-.51,4.47.3,4.46,3.72q-.13,35.79,0,71.57c0,3.68-1.47,4.45-4.77,4.41C145.55,79.71,132.2,79.79,118.85,79.79Zm.48-5.38q17,0,34,0c2.18,0,4.49.3,4.48-3.08q0-30.78,0-61.57c0-2.37-.9-3.23-3.37-2.86Q119.84,12,85.17,17c-3.31.48-4.8,1.9-4.75,5.57q.28,23.54,0,47.06c0,3.72,1.15,4.93,4.86,4.87C96.64,74.29,108,74.42,119.33,74.41Z"/><path class="cls-1" d="M34.34,80.8c-10,0-20-.1-30,.06-3.26.06-4.35-1-4.33-4.29q.18-24.51,0-49c0-3,1.16-4.15,4-4.51,10.91-1.43,21.81-2.91,32.68-4.51,9.06-1.34,18.12-2.69,27.11-4.4,4.11-.78,5.7-.06,5.65,4.51q-.3,28.52,0,57c0,4.37-1.6,5.31-5.56,5.22C54,80.65,44.18,80.8,34.34,80.8Zm.07-6.12c8.34,0,16.68-.11,25,.06,3.06.06,4-1,4-4q-.18-23,0-46c0-3.62-1.06-4.59-4.63-4Q34.11,24.58,9.35,28.08c-2.88.41-4,1.63-3.95,4.53.1,12.67.13,25.34,0,38,0,3.47,1.48,4.16,4.53,4.11C18.07,74.58,26.24,74.68,34.41,74.68Z"/><path class="cls-1" d="M34.87,85.86c9.85,0,19.69.11,29.54-.06,3.62-.07,5,1.06,5,4.84q-.22,27.78,0,55.56c0,3.43-1.07,4.29-4.42,3.77q-30.87-4.72-61.8-9.15C.85,140.48,0,139.48,0,137.25c0-15.85.08-31.7,0-47.55,0-3.27,1.56-3.89,4.33-3.87C14.52,85.91,24.7,85.86,34.87,85.86Zm-.15,5.94c-8.17,0-16.34.15-24.49-.07-3.74-.1-4.92,1.23-4.86,4.91q.27,17,0,34c0,3.42.83,5,4.51,5.49,16.64,2.31,33.26,4.86,49.86,7.49,3.72.58,3.65-1.42,3.64-4,0-14.33-.18-28.66.09-43,.08-4.23-1.57-5-5.25-4.9C50.39,91.94,42.55,91.8,34.72,91.8Z"/></g></g></svg>