<svg xmlns="http://www.w3.org/2000/svg" viewBox="0 0 163.81 164.02"><defs><style>.cls-1{fill:#fcfdf8;}</style></defs><title>Asset 8</title><g id="Layer_2" data-name="Layer 2"><g id="Layer_1-2" data-name="Layer 1"><path class="cls-1" d="M163.81,82c0,45.63-36.08,81.92-81.61,82S.77,127.86,0,82.47C-.71,39.42,35.85-.19,82,0A81.87,81.87,0,0,1,163.81,82ZM63.63,125.56c2.71-8,4.64-16.2,8.17-23.62,7.4-15.54,7.42-30.41-.64-45.72-2.62-5-3.08-11.07-11-9.73a2.82,2.82,0,0,1-3.19-3.11c.1-2,1.09-3.58,3.27-3.83a16.66,16.66,0,0,1,4,.08,139.94,139.94,0,0,0,30,.07,41.86,41.86,0,0,1,7-.14c1.92.14,2.92,1.56,3,3.44a3.08,3.08,0,0,1-2.55,3.27,15,15,0,0,1-4.44.54c-3.88-.29-3.93,1.39-2.86,4.43C98.05,62,101.6,72.76,105.21,83.52c4.09,12.19,8.14,24.39,12.25,36.57.4,1.18.43,3,2.2,2.9,1.56,0,1.34-1.71,1.66-2.72,2.85-8.91,5.69-17.82,8.42-26.77,4.08-13.34,2.94-26-4.81-37.94a48.17,48.17,0,0,1-5.5-11.78,12.83,12.83,0,0,1,1.23-10.63c2.16-3.76,5.56-6,10.72-7.22-19.37-16.7-41-21.44-64.59-17C47.23,12.62,31.85,23.21,19.92,40.39c3,0,4.84.08,6.66,0,5.5-.3,11-.7,16.49-1,2.48-.13,4.36.85,4.45,3.6.09,2.54-1.75,3.37-3.92,3.67a10.43,10.43,0,0,1-2.49.16c-4-.45-4.71.93-3.39,4.76,8,23.39,15.82,46.85,23.72,70.28C61.84,123,61.91,124.45,63.63,125.56ZM82.46,92.23C75.58,112.25,68.81,132,62,151.72c-1,2.86,1.11,3.06,2.86,3.43a80.88,80.88,0,0,0,37.19-.8c3.4-.88,4.18-2,2.9-5.4C98.37,131.43,92,113.82,85.57,96.24,85.06,94.86,84.73,93.3,82.46,92.23ZM13.29,52.91c-16.68,39.56,4.26,82.38,34.79,95.18C36.54,116.52,25.11,85.27,13.29,52.91Zm107.59,92.57a21.5,21.5,0,0,0,2.45-1c1.39-.93,2.8-1.83,4.1-2.87,19.06-15.2,28.87-35.1,29.34-59.38a66.2,66.2,0,0,0-4.45-25.52c-.51-1.32-.64-3.56-2.37-3.41-2.07.18-1.16,2.38-1.18,3.68a60.3,60.3,0,0,1-3.51,18.11c-4.53,13.43-9.31,26.78-14,40.18C127.91,125,124.58,134.75,120.88,145.48Z"/></g></g></svg>