<svg xmlns="http://www.w3.org/2000/svg" viewBox="0 0 236.62 159.22"><defs><style>.cls-1{fill:#fff;}</style></defs><title>Asset 3</title><g id="Layer_2" data-name="Layer 2"><g id="Layer_1-2" data-name="Layer 1"><path class="cls-1" d="M15.3,139.93v7.93h6.31A7,7,0,0,1,19,150.28l0,0a7.42,7.42,0,0,1-3.59.88,7.22,7.22,0,0,1-2.94-.6A7.87,7.87,0,0,1,10,149c-.12-.12-.24-.25-.34-.37a7.52,7.52,0,0,1-1.26-2,7.37,7.37,0,0,1-.58-2.93,7,7,0,0,1,.61-2.93,8.27,8.27,0,0,1,1.61-2.41,7.48,7.48,0,0,1,2.37-1.61,7.59,7.59,0,0,1,2.93-.59,7.15,7.15,0,0,1,2.31.4,8.44,8.44,0,0,1,2.09,1l3.13-5.64.71-1.28a14.92,14.92,0,0,0-3.86-1.78,15.22,15.22,0,0,0-4.38-.64,15,15,0,0,0-6,1.21,15.16,15.16,0,0,0-4.88,3.31,15.61,15.61,0,0,0-3.27,4.93,15.21,15.21,0,0,0-1.2,6,15,15,0,0,0,1.21,6,15.28,15.28,0,0,0,1.7,3,15,15,0,0,0,1.59,1.9,15.32,15.32,0,0,0,4.86,3.3,15,15,0,0,0,6,1.22A16.54,16.54,0,0,0,21.44,158a14,14,0,0,0,4.75-3.06,13.51,13.51,0,0,0,3.08-4.72,16.36,16.36,0,0,0,1.09-6.08v-4.2Z"/><path class="cls-1" d="M55.38,145.53a10.65,10.65,0,0,0,1.09-2.37,7.88,7.88,0,0,0,.41-2.42V139a10.33,10.33,0,0,0-.81-4.09l0,0a10.66,10.66,0,0,0-2.27-3.36,10.46,10.46,0,0,0-3.39-2.27,10.2,10.2,0,0,0-4.11-.83H42.58a10,10,0,0,0-4.09.83,11.37,11.37,0,0,0-3.39,2.24,10.81,10.81,0,0,0-2.32,3.34,9.63,9.63,0,0,0-.85,4v20h7.82v-8.18h1.68a6.39,6.39,0,0,1,3,.71,8.27,8.27,0,0,1,2.4,1.84,8.56,8.56,0,0,1,1.64,2.6s0,.08,0,.12a8.07,8.07,0,0,1,.54,2.91h7.88a15.44,15.44,0,0,0-.3-2.9,12.66,12.66,0,0,0-.8-2.51,2.83,2.83,0,0,0-.14-.35,10.66,10.66,0,0,0-1.49-2.34.91.91,0,0,0-.13-.16,7.84,7.84,0,0,0-2.35-1.84,5.05,5.05,0,0,0,2.07-1.16A8.25,8.25,0,0,0,55.38,145.53Zm-15.63-1.26,0-5.35a2.64,2.64,0,0,1,.84-2,2.8,2.8,0,0,1,2-.82h3.7a2.72,2.72,0,0,1,2,.82,2.65,2.65,0,0,1,.8,2v2.59a2.75,2.75,0,0,1-2.79,2.78Z"/><path class="cls-1" d="M69.31,128.51a10,10,0,0,0-4.08.84,10.88,10.88,0,0,0-3.33,2.27A11.14,11.14,0,0,0,59.62,135a10.29,10.29,0,0,0-.83,4.08v9.29a10.36,10.36,0,0,0,.83,4A11.05,11.05,0,0,0,61,154.69a10.44,10.44,0,0,0,.89,1,11.18,11.18,0,0,0,3.33,2.25,10,10,0,0,0,4.08.83H80V151.3H69.31a2.5,2.5,0,0,1-1.35-.38,3.11,3.11,0,0,1-1.44-2.6v-1H80v-7.17H66.52v-1.21a2.75,2.75,0,0,1,.81-2,2.64,2.64,0,0,1,2-.83H80v-7.59Z"/><path class="cls-1" d="M92.74,128.51a9.87,9.87,0,0,0-4.06.84,10.81,10.81,0,0,0-5.61,5.6,10,10,0,0,0-.84,4.08v9.29a10,10,0,0,0,.84,4,11,11,0,0,0,1.39,2.35,11.62,11.62,0,0,0,.88,1,11,11,0,0,0,3.34,2.25,9.86,9.86,0,0,0,4.06.83h10.72V151.3H92.74a2.49,2.49,0,0,1-1.34-.38,2.57,2.57,0,0,1-.62-.53,3,3,0,0,1-.81-2.07v-1h13.49v-7.17H90v-1.21a2.75,2.75,0,0,1,.81-2,2.59,2.59,0,0,1,2-.83h10.72v-7.59Z"/><path class="cls-1" d="M123.1,128.42l.3,17.44v.08l-7.64-13.39-1.1-1.92a5.11,5.11,0,0,0-2.32-2.12,5.65,5.65,0,0,0-3.13-.58,4.24,4.24,0,0,0-2.72,1.46,5.86,5.86,0,0,0-1.17,4v25.35h8V142.5l1.42,2.52,6.61,11.63a5.8,5.8,0,0,0,.34.52,4.64,4.64,0,0,0,2.26,1.7,5.78,5.78,0,0,0,3.23.21,5.26,5.26,0,0,0,2.76-1.62,4.6,4.6,0,0,0,1.16-3.23V128.42Z"/><path class="cls-1" d="M170.06,147.94a5.14,5.14,0,0,0-.23-.79,6.87,6.87,0,0,0-.5-1.11,7.81,7.81,0,0,0-.83-1.2,6.48,6.48,0,0,0-.44-.49,5.68,5.68,0,0,0-1.88-1.23,5.93,5.93,0,0,0,2.31-2.74,8.13,8.13,0,0,0,.69-3,9.37,9.37,0,0,0-.57-3.25l-.16-.38a8.2,8.2,0,0,0-2-2.83,9.55,9.55,0,0,0-3-1.82,10.2,10.2,0,0,0-3.69-.66H145.49v30.31h15.45a10.44,10.44,0,0,0,3.72-.66,8.77,8.77,0,0,0,5.05-4.72,7.8,7.8,0,0,0,.63-3.61A11,11,0,0,0,170.06,147.94Zm-17.2-11.81h6.72a1.61,1.61,0,0,1,1.26.62,2.59,2.59,0,0,1,.51,1.71.57.57,0,0,1,0,.13,2,2,0,0,1-.5,1.34,1.64,1.64,0,0,1-1.26.55h-6.72Zm0,10.67h8a1.57,1.57,0,0,1,1.23.66,2.18,2.18,0,0,1,.53,1.41,2.24,2.24,0,0,1-.53,1.47,1.54,1.54,0,0,1-1.23.7h-8Z"/><path class="cls-1" d="M173,128.46v30.31h7.92V128.46Z"/><path class="cls-1" d="M206.89,145.53a9.8,9.8,0,0,0,1.08-2.37,7.59,7.59,0,0,0,.41-2.42V139a10.23,10.23,0,0,0-.82-4.11l0,0a10.52,10.52,0,0,0-5.65-5.63,10.28,10.28,0,0,0-4.12-.83h-3.69a10.11,10.11,0,0,0-4.09.83,11.32,11.32,0,0,0-3.38,2.24,10.68,10.68,0,0,0-2.33,3.34,10,10,0,0,0-.86,4v20h7.83v-8.18h1.68a6.39,6.39,0,0,1,2.95.71,8.31,8.31,0,0,1,2.41,1.84,8.53,8.53,0,0,1,1.63,2.6l0,.11a8.3,8.3,0,0,1,.54,2.92h7.88a15.44,15.44,0,0,0-.3-2.9,12.66,12.66,0,0,0-.8-2.51,2.83,2.83,0,0,0-.14-.35,10.66,10.66,0,0,0-1.49-2.34,1.83,1.83,0,0,0-.13-.16,7.79,7.79,0,0,0-2.34-1.84,5.12,5.12,0,0,0,2.07-1.16A9,9,0,0,0,206.89,145.53Zm-15.64-1.26-.05-5.35a2.67,2.67,0,0,1,.83-2,2.83,2.83,0,0,1,2-.82h3.71a2.73,2.73,0,0,1,2,.82,2.66,2.66,0,0,1,.81,2v2.59a2.77,2.77,0,0,1-2.79,2.78Z"/><path class="cls-1" d="M235.43,137.71a5.24,5.24,0,0,0-.23-.48,14.88,14.88,0,0,0-3-4.32,15.35,15.35,0,0,0-4.84-3.26,14.73,14.73,0,0,0-5.89-1.19H210v30.31h11.34a14.8,14.8,0,0,0,5.9-1.18,15.52,15.52,0,0,0,8.12-8.11,15,15,0,0,0,0-11.77Zm-17.66-1.58h3.64a7.18,7.18,0,0,1,2.89.62,7.32,7.32,0,0,1,2.34,1.62,7.84,7.84,0,0,1,1.56,2.35c.06.14.11.27.16.41a7.25,7.25,0,0,1,.43,2.47,7.51,7.51,0,0,1-.59,3,7.42,7.42,0,0,1-1.56,2.41,7.51,7.51,0,0,1-2.34,1.63,7.16,7.16,0,0,1-2.89.6h-3.64Z"/><path class="cls-1" d="M146,69.87,183.86,85c-2.55-.41-5.09-.8-7.63-1.19q-12-1.87-24-3.71c-6.57-1-13.16-2-19.74-3q-3.54-.52-7.08-.89a116.31,116.31,0,0,0-12-.64c-5.25,0-10.49.2-15.73.31-9.92.22-20.33.54-30-2.17a24.21,24.21,0,0,1-8.24-3.81,38.07,38.07,0,0,1-6.3-6.26A88.22,88.22,0,0,1,42.59,48.19c-2.1-4.13-3.79-8.53-8-11a16.76,16.76,0,0,0-9.62-2c1.26-1.12,2.47-2.14,3.61-3.06.81-.65,1.59-1.27,2.35-1.84h0A50.23,50.23,0,0,1,37.65,26l0,0h0c5.36-2.79,8.8-2.73,11.1-1.78l.25.11c5.26,2.41,7.17,10.45,12.79,12.21a7.12,7.12,0,0,0,1.5.3,7.4,7.4,0,0,0,4-.86,9.62,9.62,0,0,0,4.55-7.6,8.16,8.16,0,0,0,0-1.11c0-.2,0-.4-.08-.59v0l-.09-.42a4.65,4.65,0,0,0-.21-.7c-.07-.23-.16-.46-.24-.68L71,24.43c0-.11-.11-.22-.17-.33a2,2,0,0,0-.18-.32,24.85,24.85,0,0,0-2-2.78l-.41-.54A15.41,15.41,0,0,1,67,18.63c-.06-.1-.12-.22-.17-.32a7.42,7.42,0,0,1-.65-1.74c0-.12,0-.23-.07-.35a.09.09,0,0,1,0,0c0-.12,0-.24-.05-.37a1.71,1.71,0,0,1,0-.31c0-.17,0-.32,0-.48v-.09q0-.33,0-.66c0-.06,0-.12,0-.17a6.32,6.32,0,0,1,.1-.65,5.59,5.59,0,0,1,.12-.56,2.63,2.63,0,0,0,.09-.3c.06-.19.12-.37.19-.56a10.51,10.51,0,0,1,1.49-2.67c.09-.14.2-.27.31-.41l.33-.39c.22-.25.47-.51.71-.75A16.44,16.44,0,0,1,75.57,4,52.42,52.42,0,0,1,84,2.11C97.82-.11,112.08-.06,126.07,0c10.05.07,20.1.9,30.15.9l4.44.22c-6.29,1.91-12.6,3.75-18.94,5.44-5.6,1.49-11.23,2.68-16.9,3.87-4.06.85-8.14,3.07-9.32,7.33-1,3.6-.65,7.35-.9,11a24.18,24.18,0,0,1-.77,4.59,26,26,0,0,1-2,5v0s-.05.1-.1.2l-.36.72c-.62,1.3-1.86,3.72-3.3,6.12a24.9,24.9,0,0,1-4.53,6l1.68,1.13A64.54,64.54,0,0,0,113.09,57q1,.48,2,.93l.26.1h0c.36.16.73.31,1.1.45s.67.26,1,.38.63.22,1,.31c.49.16,1,.31,1.48.44a22.68,22.68,0,0,0,8.34.2c3.53-.4,7.06-.91,10.58-1.49,5-.83,10-1.77,14.94-2.62q6.3-1.1,12.61-2.22l12.21-2.19.37-.07h0q8.2-1.47,16.41-3l4.4-.82,3.2-.59.25,0-49.67,20-3.46,1.4Z"/><path class="cls-1" d="M183.86,85l-31.62-4.9c-4.88-2.6-38.44-10.62-77.38-10.31C66,69.9,59,65.16,53.33,58.3A88.82,88.82,0,0,1,42.7,42.81c-2.09-4.13-3.66-7.54-7.83-10-1-.58-4.28-.57-6.26-.69l9-6.13,0,0h0c5-2.07,9.06-2.52,11.1-1.78l.25.11c5.26,2.41,7.17,10.45,12.79,12.21a7.12,7.12,0,0,0,1.5.3,7.4,7.4,0,0,0,4-.86,9.62,9.62,0,0,0,4.55-7.6,8.16,8.16,0,0,0,0-1.11c0-.2,0-.4-.08-.59v0l-.09-.42a4.65,4.65,0,0,0-.21-.7,9.08,9.08,0,0,0,.29-1A8.15,8.15,0,0,0,72,23c.3-5-4-7.13-5.38-10.94a10.51,10.51,0,0,1,1.49-2.67c.09-.14.2-.27.31-.41l.33-.39c.22-.25.47-.51.71-.75A16.44,16.44,0,0,1,75.57,4,52.42,52.42,0,0,1,84,2.11C97.82-.11,112.08-.06,126.07,0c10.05.07,20.1.9,30.15.9l4.44.22c-6.29,1.91-12.6,3.75-18.94,5.44-5.6,1.49-11.23,2.68-16.9,3.87-4.06.85-8.14,3.07-9.32,7.33-1,3.6-.65,7.35-.9,11a24.18,24.18,0,0,1-.77,4.59,26,26,0,0,1-2,5v0s-.05.1-.1.2l-.26.46a1.49,1.49,0,0,0-.1.26c-.62,1.3-1.86,3.72-3.3,6.12a24.9,24.9,0,0,1-4.53,6l1.68,1.13A64.54,64.54,0,0,0,113.09,57q1,.48,2,.93l.26.1h0c.36.16.73.31,1.1.45s.67.26,1,.38.63.22,1,.31c.49.16,1,.31,1.48.44a22.68,22.68,0,0,0,8.34.2c3.53-.4,7.06-.91,10.58-1.49,5-.83,10-1.77,14.94-2.62q6.3-1.1,12.61-2.22l12.21-2.19.37-.07-14.94,6L155,60.93l-4.38,1.76-.35.14-4.09,1.66,7.31,2.3.07,0h.07l-3.46,1.4L146,69.87Z"/><path class="cls-1" d="M206.85,13.62a1.13,1.13,0,0,0-.84-.9v0a1.27,1.27,0,0,0,.87-.45,1.8,1.8,0,0,0,.26-1,1.63,1.63,0,0,0-.5-1.37A2.77,2.77,0,0,0,205,9.46a22.11,22.11,0,0,0-2.26.08v5.92H204V13.15h.93a.71.71,0,0,1,.41.11.69.69,0,0,1,.21.38l.45,1.82h1.39ZM205.64,12a1.06,1.06,0,0,1-.71.18h-1V10.47h1a1.08,1.08,0,0,1,.71.16.94.94,0,0,1,.18.67A.91.91,0,0,1,205.64,12Z"/><path class="cls-1" d="M205,6.39a6.08,6.08,0,1,0,6.08,6.07A6.08,6.08,0,0,0,205,6.39Zm0,11.39a5.32,5.32,0,1,1,5.31-5.32A5.33,5.33,0,0,1,205,17.78Z"/><path class="cls-1" d="M110.78,97.86c-1.85.68-3.71,1.31-5.59,1.91-1.61.52-3.23,1-4.87,1.46a87.82,87.82,0,0,1-28.89,3.48,43,43,0,0,1-13.1-2.64c-.69-.27-1.36-.58-2-.9a23.11,23.11,0,0,1-5.55-3.71A19.81,19.81,0,0,1,45,87.92,13.47,13.47,0,0,1,46.76,77.7a15.65,15.65,0,0,1,3.46-4.06c.5-.41,3.69-3,4.33-2.32a24.85,24.85,0,0,0,7.86,5.21c.69.3,1.4.56,2.11.79l1.1.32a24.93,24.93,0,0,0,4.92.83,25.64,25.64,0,0,0,3.28,0c.79,0,2.61,0,3.27-.41-2,1.44-4.12,3-5.19,5.2-.07.16-.14.32-.2.48a4,4,0,0,0-.24,2.54,5,5,0,0,0,2.47,2.59,32.66,32.66,0,0,0,5.15,2.5l.35.13a86.16,86.16,0,0,0,11.5,3.27,135,135,0,0,0,17.56,2.88l.26,0A5.86,5.86,0,0,0,110.78,97.86Z"/><path class="cls-1" d="M93.19,96.27c2.29.68,7.44,2.16,12,3.5-1.61.52-3.23,1-4.87,1.46a87.82,87.82,0,0,1-28.89,3.48,40.12,40.12,0,0,1-15.13-3.54A20,20,0,0,1,52.77,94a13.47,13.47,0,0,1,1.7-10.22,15.71,15.71,0,0,1,3.47-4.06c.29-.24,2.55-2,4.47-3.19.69.3,1.4.56,2.11.79a25.38,25.38,0,0,0,9.3,1.16c.79,0,2.61,0,3.27-.41-2,1.44-4.12,3-5.19,5.2-.07.16-.14.32-.2.48a4,4,0,0,0-.24,2.54,5,5,0,0,0,2.47,2.59,32.66,32.66,0,0,0,5.15,2.5C79.08,91.72,92.87,96.18,93.19,96.27Z"/><path class="cls-1" d="M160.66,1.15c-6.29,1.91-12.59,3.75-18.94,5.44-5.6,1.49-11.24,2.68-16.9,3.87-4.06.85-8.14,3.06-9.32,7.33-1,3.59-.65,7.35-.9,11a24.18,24.18,0,0,1-.77,4.59,26,26,0,0,1-2,5v0s-.05.1-.1.2l-.36.72c-.63,1.3-1.86,3.72-3.3,6.12-10.8,5.81-31.72,33.39-46.26-9a6.93,6.93,0,0,0,1.48.3,7.37,7.37,0,0,0,4-.86,9.3,9.3,0,0,0,4.34-6.06,9.07,9.07,0,0,0,.22-1.54,6.8,6.8,0,0,0,0-1.11,5.6,5.6,0,0,0-.07-.59v0l-.09-.42a4.29,4.29,0,0,0-.2-.7,5.84,5.84,0,0,0-.26-.67,2.64,2.64,0,0,0-.18-.38c0-.11-.11-.22-.17-.33a3.69,3.69,0,0,0-.18-.33,25.68,25.68,0,0,0-2-2.77l-.41-.54A16.72,16.72,0,0,1,67,18.63a3.24,3.24,0,0,1-.17-.32,7,7,0,0,1-.65-1.74c0-.12,0-.23-.07-.35a.09.09,0,0,1,0,0c0-.12,0-.25-.05-.37a1.71,1.71,0,0,1,0-.31c0-.16,0-.32,0-.49v-.08c0-.22,0-.43,0-.66,0-.06,0-.12,0-.18,0-.21.06-.42.1-.64a4.88,4.88,0,0,1,.12-.55l.09-.31a5.05,5.05,0,0,1,.18-.55,10.85,10.85,0,0,1,1.49-2.68c.1-.14.21-.27.32-.4s.22-.27.33-.4.47-.5.71-.75A16.37,16.37,0,0,1,75.57,4,53.52,53.52,0,0,1,84,2.11C97.82-.11,112.08-.06,126.07,0c10.05.07,20.1.89,30.15.89Z"/><path class="cls-1" d="M156.22.92l4.44.23c-6.29,1.91-12.59,3.75-18.94,5.44-5.6,1.49-11.24,2.68-16.9,3.87-4.06.85-8.14,3.06-9.32,7.33-1,3.59-.65,7.35-.9,11a24.18,24.18,0,0,1-.77,4.59,26,26,0,0,1-2,5c-8.14-1.6-16.51-6-23.6-15.29C81.42,14.17,75,9.69,69.41,7.8A16.37,16.37,0,0,1,75.57,4,53.52,53.52,0,0,1,84,2.11C97.82-.11,112.08-.06,126.07,0,136.12.1,146.17.92,156.22.92Z"/><path class="cls-1" d="M115.13,57.91a34.17,34.17,0,0,0,4.8,1.69,22.69,22.69,0,0,0,8.34.2c3.53-.4,7.06-.91,10.58-1.5,5-.82,10-1.76,14.94-2.61,13.89-2.4,27.75-4.94,41.63-7.47,1.47-.26,2.93-.54,4.39-.81l3.45-.64L138.85,72.66Z"/></g></g></svg>